<svg width="40" height="40" viewBox="0 0 40 40" fill="none" xmlns="http://www.w3.org/2000/svg">
<path d="M20 15.2C18.727 15.2 17.5061 15.7057 16.6059 16.6059C15.7057 17.5061 15.2 18.727 15.2 20C15.2 21.273 15.7057 22.4939 16.6059 23.3941C17.5061 24.2943 18.727 24.8 20 24.8C21.273 24.8 22.4939 24.2943 23.3941 23.3941C24.2943 22.4939 24.8 21.273 24.8 20C24.8 18.727 24.2943 17.5061 23.3941 16.6059C22.4939 15.7057 21.273 15.2 20 15.2ZM20 12C22.1217 12 24.1566 12.8429 25.6569 14.3431C27.1571 15.8434 28 17.8783 28 20C28 22.1217 27.1571 24.1566 25.6569 25.6569C24.1566 27.1571 22.1217 28 20 28C17.8783 28 15.8434 27.1571 14.3431 25.6569C12.8429 24.1566 12 22.1217 12 20C12 17.8783 12.8429 15.8434 14.3431 14.3431C15.8434 12.8429 17.8783 12 20 12ZM30.4 11.6C30.4 12.1304 30.1893 12.6391 29.8142 13.0142C29.4391 13.3893 28.9304 13.6 28.4 13.6C27.8696 13.6 27.3609 13.3893 26.9858 13.0142C26.6107 12.6391 26.4 12.1304 26.4 11.6C26.4 11.0696 26.6107 10.5609 26.9858 10.1858C27.3609 9.81071 27.8696 9.6 28.4 9.6C28.9304 9.6 29.4391 9.81071 29.8142 10.1858C30.1893 10.5609 30.4 11.0696 30.4 11.6ZM20 7.2C16.0416 7.2 15.3952 7.2112 13.5536 7.2928C12.2992 7.352 11.4576 7.52 10.6768 7.824C9.9824 8.0928 9.4816 8.4144 8.9488 8.9488C8.44801 9.43264 8.06296 10.0233 7.8224 10.6768C7.5184 11.4608 7.3504 12.3008 7.2928 13.5536C7.2096 15.32 7.2 15.9376 7.2 20C7.2 23.9584 7.2112 24.6048 7.2928 26.4464C7.352 27.6992 7.52 28.5424 7.8224 29.3216C8.0944 30.0176 8.4144 30.5184 8.9456 31.0496C9.4848 31.5872 9.9856 31.9088 10.6736 32.1744C11.464 32.48 12.3056 32.6496 13.5536 32.7072C15.32 32.7904 15.9376 32.8 20 32.8C23.9584 32.8 24.6048 32.7888 26.4464 32.7072C27.6976 32.648 28.5408 32.48 29.3216 32.1776C30.0144 31.9072 30.5184 31.5856 31.0496 31.0544C31.5888 30.5152 31.9104 30.0144 32.176 29.3264C32.48 28.5376 32.6496 27.6944 32.7072 26.4464C32.7904 24.68 32.8 24.0624 32.8 20C32.8 16.0416 32.7888 15.3952 32.7072 13.5536C32.648 12.3024 32.48 11.4576 32.176 10.6768C31.9349 10.024 31.5505 9.43354 31.0512 8.9488C30.5676 8.44775 29.9768 8.06267 29.3232 7.8224C28.5392 7.5184 27.6976 7.3504 26.4464 7.2928C24.68 7.2096 24.0624 7.2 20 7.2ZM20 4C24.3472 4 24.8896 4.016 26.5952 4.096C28.2992 4.176 29.4592 4.4432 30.48 4.84C31.536 5.2464 32.4256 5.7968 33.3152 6.6848C34.1288 7.48463 34.7583 8.45214 35.16 9.52C35.5552 10.5392 35.824 11.7008 35.904 13.4048C35.9792 15.1104 36 15.6528 36 20C36 24.3472 35.984 24.8896 35.904 26.5952C35.824 28.2992 35.5552 29.4592 35.16 30.48C34.7595 31.5484 34.1298 32.5162 33.3152 33.3152C32.5151 34.1285 31.5477 34.758 30.48 35.16C29.4608 35.5552 28.2992 35.824 26.5952 35.904C24.8896 35.9792 24.3472 36 20 36C15.6528 36 15.1104 35.984 13.4048 35.904C11.7008 35.824 10.5408 35.5552 9.52 35.16C8.45172 34.7592 7.48404 34.1295 6.6848 33.3152C5.87105 32.5155 5.24149 31.548 4.84 30.48C4.4432 29.4608 4.176 28.2992 4.096 26.5952C4.0208 24.8896 4 24.3472 4 20C4 15.6528 4.016 15.1104 4.096 13.4048C4.176 11.6992 4.4432 10.5408 4.84 9.52C5.24038 8.45149 5.87009 7.48371 6.6848 6.6848C7.48427 5.87077 8.45189 5.24117 9.52 4.84C10.5408 4.4432 11.6992 4.176 13.4048 4.096C15.1104 4.0208 15.6528 4 20 4Z" fill="#15B003"/>
</svg>
