<svg width="40" height="40" viewBox="0 0 40 40" fill="none" xmlns="http://www.w3.org/2000/svg">
<path d="M28.3333 5.00008H35C35.442 5.00008 35.8659 5.17568 36.1785 5.48824C36.4911 5.8008 36.6667 6.22472 36.6667 6.66675V33.3334C36.6667 33.7754 36.4911 34.1994 36.1785 34.5119C35.8659 34.8245 35.442 35.0001 35 35.0001H4.99999C4.55797 35.0001 4.13404 34.8245 3.82148 34.5119C3.50892 34.1994 3.33333 33.7754 3.33333 33.3334V6.66675C3.33333 6.22472 3.50892 5.8008 3.82148 5.48824C4.13404 5.17568 4.55797 5.00008 4.99999 5.00008H11.6667V1.66675H15V5.00008H25V1.66675H28.3333V5.00008ZM6.66666 15.0001V31.6667H33.3333V15.0001H6.66666ZM10 21.6667H18.3333V28.3334H10V21.6667Z" fill="#15B003"/>
</svg>
