<svg width="784" height="785" viewBox="0 0 784 785" fill="none" xmlns="http://www.w3.org/2000/svg">
<g opacity="0.1">
<path d="M634.686 150.541C637.19 153.046 639.658 155.592 642.087 158.178C638.629 157.041 635.78 154.275 634.686 150.541Z" fill="#15B003"/>
<path d="M553.881 90.5696C560.314 94.016 566.636 97.6661 572.837 101.514C571.895 105.461 568.875 108.78 564.68 109.904C558.587 111.536 552.326 107.921 550.693 101.829C549.569 97.634 550.933 93.3587 553.881 90.5696Z" fill="#15B003"/>
<path d="M470.183 58.9289C473.638 59.7399 477.076 60.604 480.497 61.5205C476.716 62.4396 472.897 61.3553 470.183 58.9289Z" fill="#15B003"/>
<path d="M150.097 150.051C152.601 147.547 155.147 145.079 157.733 142.65C156.596 146.108 153.831 148.957 150.097 150.051Z" fill="#15B003"/>
<path d="M90.1249 230.856C93.5714 224.423 97.2214 218.101 101.069 211.9C105.016 212.842 108.335 215.862 109.459 220.057C111.092 226.149 107.476 232.411 101.384 234.044C97.1894 235.168 92.914 233.804 90.1249 230.856Z" fill="#15B003"/>
<path d="M58.4842 314.554C59.2953 311.099 60.1593 307.661 61.0758 304.24C61.9949 308.021 60.9107 311.84 58.4842 314.554Z" fill="#15B003"/>
<path d="M725.808 470.628C724.997 474.082 724.133 477.521 723.216 480.942C722.297 477.161 723.381 473.341 725.808 470.628Z" fill="#15B003"/>
<path d="M694.167 554.325C691.378 551.378 687.103 550.014 682.908 551.138C676.816 552.77 673.2 559.032 674.833 565.124C675.957 569.319 679.276 572.34 683.223 573.281C687.071 567.08 690.721 560.758 694.167 554.325Z" fill="#15B003"/>
<path d="M634.196 635.13C630.462 636.225 627.696 639.074 626.559 642.532C629.145 640.102 631.691 637.635 634.196 635.13Z" fill="#15B003"/>
<path d="M314.109 726.253C311.396 723.826 307.576 722.742 303.795 723.661C307.216 724.577 310.655 725.442 314.109 726.253Z" fill="#15B003"/>
<path d="M230.411 694.612C233.359 691.823 234.723 687.547 233.599 683.353C231.967 677.26 225.705 673.645 219.612 675.277C215.418 676.401 212.397 679.72 211.455 683.668C217.657 687.515 223.979 691.165 230.411 694.612Z" fill="#15B003"/>
<path d="M149.606 634.64C148.512 630.906 145.663 628.14 142.205 627.004C144.635 629.59 147.102 632.135 149.606 634.64Z" fill="#15B003"/>
<path d="M224.095 118.404C225.728 124.496 222.112 130.758 216.02 132.39C209.928 134.023 203.666 130.407 202.034 124.315C200.401 118.223 204.017 111.961 210.109 110.328C216.201 108.696 222.463 112.311 224.095 118.404Z" fill="#15B003"/>
<path d="M290.28 100.669C291.913 106.762 288.297 113.024 282.205 114.656C276.113 116.288 269.851 112.673 268.219 106.581C266.586 100.489 270.202 94.2266 276.294 92.5942C282.386 90.9618 288.648 94.5772 290.28 100.669Z" fill="#15B003"/>
<path d="M356.465 82.9351C358.098 89.0273 354.482 95.2893 348.39 96.9217C342.298 98.5541 336.036 94.9387 334.404 88.8466C332.771 82.7544 336.387 76.4924 342.479 74.86C348.571 73.2276 354.833 76.843 356.465 82.9351Z" fill="#15B003"/>
<path d="M422.65 65.2009C424.283 71.2931 420.667 77.5551 414.575 79.1875C408.483 80.8198 402.221 77.2045 400.589 71.1123C398.956 65.0202 402.572 58.7582 408.664 57.1258C414.756 55.4934 421.018 59.1087 422.65 65.2009Z" fill="#15B003"/>
<path d="M175.644 202.323C177.277 208.415 173.661 214.677 167.569 216.309C161.477 217.942 155.215 214.326 153.583 208.234C151.95 202.142 155.566 195.88 161.658 194.248C167.75 192.615 174.012 196.231 175.644 202.323Z" fill="#15B003"/>
<path d="M241.83 184.589C243.462 190.681 239.847 196.943 233.754 198.575C227.662 200.208 221.4 196.592 219.768 190.5C218.135 184.408 221.751 178.146 227.843 176.514C233.935 174.881 240.197 178.497 241.83 184.589Z" fill="#15B003"/>
<path d="M308.015 166.854C309.647 172.947 306.032 179.209 299.939 180.841C293.847 182.473 287.585 178.858 285.953 172.766C284.321 166.674 287.936 160.412 294.028 158.779C300.12 157.147 306.382 160.762 308.015 166.854Z" fill="#15B003"/>
<path d="M374.2 149.12C375.832 155.212 372.217 161.474 366.124 163.107C360.032 164.739 353.77 161.124 352.138 155.032C350.506 148.939 354.121 142.677 360.213 141.045C366.305 139.413 372.567 143.028 374.2 149.12Z" fill="#15B003"/>
<path d="M440.385 131.386C442.017 137.478 438.402 143.74 432.31 145.373C426.217 147.005 419.955 143.39 418.323 137.297C416.691 131.205 420.306 124.943 426.398 123.311C432.49 121.678 438.752 125.294 440.385 131.386Z" fill="#15B003"/>
<path d="M506.57 113.652C508.202 119.744 504.587 126.006 498.495 127.638C492.402 129.271 486.14 125.655 484.508 119.563C482.876 113.471 486.491 107.209 492.583 105.577C498.675 103.944 504.937 107.56 506.57 113.652Z" fill="#15B003"/>
<path d="M127.194 286.242C128.826 292.334 125.211 298.596 119.118 300.229C113.026 301.861 106.764 298.246 105.132 292.154C103.5 286.061 107.115 279.799 113.207 278.167C119.299 276.535 125.561 280.15 127.194 286.242Z" fill="#15B003"/>
<path d="M193.379 268.508C195.011 274.6 191.396 280.862 185.304 282.495C179.211 284.127 172.949 280.512 171.317 274.419C169.685 268.327 173.3 262.065 179.392 260.433C185.484 258.8 191.746 262.416 193.379 268.508Z" fill="#15B003"/>
<path d="M259.564 250.774C261.196 256.866 257.581 263.128 251.489 264.76C245.396 266.393 239.134 262.777 237.502 256.685C235.87 250.593 239.485 244.331 245.577 242.699C251.669 241.066 257.931 244.682 259.564 250.774Z" fill="#15B003"/>
<path d="M325.749 233.039C327.381 239.132 323.766 245.394 317.674 247.026C311.582 248.658 305.32 245.043 303.687 238.951C302.055 232.859 305.67 226.597 311.762 224.964C317.854 223.332 324.116 226.947 325.749 233.039Z" fill="#15B003"/>
<path d="M391.934 215.305C393.566 221.397 389.951 227.659 383.859 229.292C377.767 230.924 371.505 227.309 369.872 221.217C368.24 215.125 371.855 208.863 377.947 207.23C384.039 205.598 390.301 209.213 391.934 215.305Z" fill="#15B003"/>
<path d="M458.119 197.571C459.751 203.663 456.136 209.925 450.044 211.558C443.952 213.19 437.69 209.575 436.057 203.482C434.425 197.39 438.04 191.128 444.132 189.496C450.225 187.864 456.487 191.479 458.119 197.571Z" fill="#15B003"/>
<path d="M524.304 179.837C525.936 185.929 522.321 192.191 516.229 193.823C510.137 195.456 503.875 191.84 502.242 185.748C500.61 179.656 504.225 173.394 510.317 171.762C516.41 170.129 522.672 173.745 524.304 179.837Z" fill="#15B003"/>
<path d="M590.489 162.103C592.121 168.195 588.506 174.457 582.414 176.089C576.322 177.722 570.06 174.106 568.427 168.014C566.795 161.922 570.41 155.66 576.502 154.027C582.595 152.395 588.857 156.01 590.489 162.103Z" fill="#15B003"/>
<path d="M78.7428 370.161C80.3752 376.254 76.7598 382.516 70.6677 384.148C64.5755 385.78 58.3135 382.165 56.6811 376.073C55.0487 369.981 58.6641 363.719 64.7562 362.086C70.8484 360.454 77.1104 364.069 78.7428 370.161Z" fill="#15B003"/>
<path d="M144.928 352.427C146.56 358.519 142.945 364.781 136.853 366.414C130.761 368.046 124.499 364.431 122.866 358.339C121.234 352.247 124.849 345.985 130.941 344.352C137.033 342.72 143.295 346.335 144.928 352.427Z" fill="#15B003"/>
<path d="M211.113 334.693C212.745 340.785 209.13 347.047 203.038 348.68C196.946 350.312 190.684 346.697 189.051 340.604C187.419 334.512 191.034 328.25 197.126 326.618C203.219 324.985 209.481 328.601 211.113 334.693Z" fill="#15B003"/>
<path d="M277.298 316.959C278.93 323.051 275.315 329.313 269.223 330.945C263.131 332.578 256.869 328.962 255.236 322.87C253.604 316.778 257.219 310.516 263.311 308.884C269.404 307.251 275.666 310.867 277.298 316.959Z" fill="#15B003"/>
<path d="M343.483 299.225C345.115 305.317 341.5 311.579 335.408 313.211C329.316 314.843 323.054 311.228 321.421 305.136C319.789 299.044 323.404 292.782 329.496 291.149C335.589 289.517 341.851 293.132 343.483 299.225Z" fill="#15B003"/>
<path d="M409.668 281.49C411.3 287.582 407.685 293.844 401.593 295.477C395.501 297.109 389.239 293.494 387.606 287.402C385.974 281.31 389.589 275.048 395.682 273.415C401.774 271.783 408.036 275.398 409.668 281.49Z" fill="#15B003"/>
<path d="M475.853 263.756C477.486 269.848 473.87 276.11 467.778 277.743C461.686 279.375 455.424 275.76 453.791 269.667C452.159 263.575 455.774 257.313 461.867 255.681C467.959 254.049 474.221 257.664 475.853 263.756Z" fill="#15B003"/>
<path d="M542.038 246.022C543.671 252.114 540.055 258.376 533.963 260.008C527.871 261.641 521.609 258.025 519.977 251.933C518.344 245.841 521.96 239.579 528.052 237.947C534.144 236.314 540.406 239.93 542.038 246.022Z" fill="#15B003"/>
<path d="M608.223 228.288C609.856 234.38 606.24 240.642 600.148 242.274C594.056 243.907 587.794 240.291 586.162 234.199C584.529 228.107 588.145 221.845 594.237 220.212C600.329 218.58 606.591 222.195 608.223 228.288Z" fill="#15B003"/>
<path d="M674.408 210.553C676.041 216.646 672.425 222.908 666.333 224.54C660.241 226.172 653.979 222.557 652.347 216.465C650.714 210.373 654.33 204.111 660.422 202.478C666.514 200.846 672.776 204.461 674.408 210.553Z" fill="#15B003"/>
<path d="M96.477 436.347C98.1094 442.439 94.4941 448.701 88.4019 450.333C82.3097 451.966 76.0477 448.35 74.4153 442.258C72.783 436.166 76.3983 429.904 82.4905 428.271C88.5827 426.639 94.8446 430.254 96.477 436.347Z" fill="#15B003"/>
<path d="M162.662 418.612C164.294 424.704 160.679 430.966 154.587 432.599C148.495 434.231 142.233 430.616 140.6 424.524C138.968 418.432 142.583 412.17 148.676 410.537C154.768 408.905 161.03 412.52 162.662 418.612Z" fill="#15B003"/>
<path d="M228.847 400.878C230.48 406.97 226.864 413.232 220.772 414.865C214.68 416.497 208.418 412.882 206.785 406.789C205.153 400.697 208.768 394.435 214.861 392.803C220.953 391.171 227.215 394.786 228.847 400.878Z" fill="#15B003"/>
<path d="M295.032 383.144C296.665 389.236 293.049 395.498 286.957 397.13C280.865 398.763 274.603 395.147 272.971 389.055C271.338 382.963 274.954 376.701 281.046 375.069C287.138 373.436 293.4 377.052 295.032 383.144Z" fill="#15B003"/>
<path d="M361.217 365.41C362.85 371.502 359.234 377.764 353.142 379.396C347.05 381.029 340.788 377.413 339.156 371.321C337.523 365.229 341.139 358.967 347.231 357.334C353.323 355.702 359.585 359.317 361.217 365.41Z" fill="#15B003"/>
<path d="M427.402 347.675C429.035 353.768 425.419 360.03 419.327 361.662C413.235 363.294 406.973 359.679 405.341 353.587C403.708 347.495 407.324 341.233 413.416 339.6C419.508 337.968 425.77 341.583 427.402 347.675Z" fill="#15B003"/>
<path d="M493.587 329.941C495.22 336.033 491.604 342.295 485.512 343.928C479.42 345.56 473.158 341.945 471.526 335.853C469.893 329.76 473.509 323.498 479.601 321.866C485.693 320.234 491.955 323.849 493.587 329.941Z" fill="#15B003"/>
<path d="M559.772 312.207C561.405 318.299 557.789 324.561 551.697 326.193C545.605 327.826 539.343 324.21 537.711 318.118C536.078 312.026 539.694 305.764 545.786 304.132C551.878 302.499 558.14 306.115 559.772 312.207Z" fill="#15B003"/>
<path d="M625.958 294.473C627.59 300.565 623.975 306.827 617.882 308.459C611.79 310.092 605.528 306.476 603.896 300.384C602.263 294.292 605.879 288.03 611.971 286.398C618.063 284.765 624.325 288.381 625.958 294.473Z" fill="#15B003"/>
<path d="M692.143 276.738C693.775 282.831 690.16 289.093 684.067 290.725C677.975 292.357 671.713 288.742 670.081 282.65C668.448 276.558 672.064 270.296 678.156 268.663C684.248 267.031 690.51 270.646 692.143 276.738Z" fill="#15B003"/>
<path d="M114.211 502.532C115.844 508.624 112.228 514.886 106.136 516.518C100.044 518.151 93.782 514.535 92.1496 508.443C90.5172 502.351 94.1326 496.089 100.225 494.456C106.317 492.824 112.579 496.439 114.211 502.532Z" fill="#15B003"/>
<path d="M180.396 484.797C182.029 490.89 178.413 497.152 172.321 498.784C166.229 500.416 159.967 496.801 158.335 490.709C156.702 484.617 160.318 478.355 166.41 476.722C172.502 475.09 178.764 478.705 180.396 484.797Z" fill="#15B003"/>
<path d="M246.581 467.063C248.214 473.155 244.598 479.417 238.506 481.05C232.414 482.682 226.152 479.067 224.52 472.975C222.887 466.882 226.503 460.62 232.595 458.988C238.687 457.356 244.949 460.971 246.581 467.063Z" fill="#15B003"/>
<path d="M312.766 449.329C314.399 455.421 310.783 461.683 304.691 463.315C298.599 464.948 292.337 461.332 290.705 455.24C289.072 449.148 292.688 442.886 298.78 441.254C304.872 439.621 311.134 443.237 312.766 449.329Z" fill="#15B003"/>
<path d="M378.952 431.595C380.584 437.687 376.969 443.949 370.876 445.581C364.784 447.214 358.522 443.598 356.89 437.506C355.257 431.414 358.873 425.152 364.965 423.52C371.057 421.887 377.319 425.503 378.952 431.595Z" fill="#15B003"/>
<path d="M445.137 413.86C446.769 419.953 443.154 426.215 437.061 427.847C430.969 429.479 424.707 425.864 423.075 419.772C421.442 413.68 425.058 407.418 431.15 405.785C437.242 404.153 443.504 407.768 445.137 413.86Z" fill="#15B003"/>
<path d="M511.322 396.126C512.954 402.218 509.339 408.48 503.246 410.113C497.154 411.745 490.892 408.13 489.26 402.038C487.628 395.945 491.243 389.683 497.335 388.051C503.427 386.419 509.689 390.034 511.322 396.126Z" fill="#15B003"/>
<path d="M577.507 378.392C579.139 384.484 575.524 390.746 569.432 392.379C563.339 394.011 557.077 390.396 555.445 384.303C553.813 378.211 557.428 371.949 563.52 370.317C569.612 368.684 575.874 372.3 577.507 378.392Z" fill="#15B003"/>
<path d="M643.692 360.658C645.324 366.75 641.709 373.012 635.617 374.644C629.524 376.277 623.262 372.661 621.63 366.569C619.998 360.477 623.613 354.215 629.705 352.583C635.797 350.95 642.059 354.566 643.692 360.658Z" fill="#15B003"/>
<path d="M709.877 342.923C711.509 349.016 707.894 355.278 701.802 356.91C695.71 358.542 689.447 354.927 687.815 348.835C686.183 342.743 689.798 336.481 695.89 334.848C701.982 333.216 708.244 336.831 709.877 342.923Z" fill="#15B003"/>
<path d="M131.946 568.717C133.578 574.809 129.963 581.071 123.87 582.703C117.778 584.336 111.516 580.72 109.884 574.628C108.251 568.536 111.867 562.274 117.959 560.642C124.051 559.009 130.313 562.625 131.946 568.717Z" fill="#15B003"/>
<path d="M198.131 550.982C199.763 557.075 196.148 563.337 190.055 564.969C183.963 566.601 177.701 562.986 176.069 556.894C174.436 550.802 178.052 544.54 184.144 542.907C190.236 541.275 196.498 544.89 198.131 550.982Z" fill="#15B003"/>
<path d="M264.316 533.248C265.948 539.34 262.333 545.602 256.24 547.235C250.148 548.867 243.886 545.252 242.254 539.16C240.622 533.067 244.237 526.805 250.329 525.173C256.421 523.541 262.683 527.156 264.316 533.248Z" fill="#15B003"/>
<path d="M330.501 515.514C332.133 521.606 328.518 527.868 322.426 529.501C316.333 531.133 310.071 527.518 308.439 521.425C306.807 515.333 310.422 509.071 316.514 507.439C322.606 505.806 328.868 509.422 330.501 515.514Z" fill="#15B003"/>
<path d="M396.686 497.78C398.318 503.872 394.703 510.134 388.611 511.766C382.518 513.399 376.256 509.783 374.624 503.691C372.992 497.599 376.607 491.337 382.699 489.705C388.791 488.072 395.053 491.688 396.686 497.78Z" fill="#15B003"/>
<path d="M462.871 480.046C464.503 486.138 460.888 492.4 454.796 494.032C448.703 495.664 442.442 492.049 440.809 485.957C439.177 479.865 442.792 473.603 448.884 471.97C454.976 470.338 461.238 473.953 462.871 480.046Z" fill="#15B003"/>
<path d="M529.056 462.311C530.688 468.403 527.073 474.665 520.981 476.298C514.889 477.93 508.627 474.315 506.994 468.223C505.362 462.131 508.977 455.869 515.069 454.236C521.161 452.604 527.423 456.219 529.056 462.311Z" fill="#15B003"/>
<path d="M595.241 444.577C596.873 450.669 593.258 456.931 587.166 458.564C581.074 460.196 574.812 456.581 573.179 450.488C571.547 444.396 575.162 438.134 581.254 436.502C587.347 434.87 593.609 438.485 595.241 444.577Z" fill="#15B003"/>
<path d="M661.426 426.843C663.058 432.935 659.443 439.197 653.351 440.829C647.259 442.462 640.997 438.846 639.364 432.754C637.732 426.662 641.347 420.4 647.439 418.768C653.532 417.135 659.794 420.751 661.426 426.843Z" fill="#15B003"/>
<path d="M727.611 409.109C729.243 415.201 725.628 421.463 719.536 423.095C713.444 424.727 707.182 421.112 705.549 415.02C703.917 408.928 707.532 402.666 713.624 401.033C719.717 399.401 725.979 403.016 727.611 409.109Z" fill="#15B003"/>
<path d="M215.865 617.167C217.497 623.26 213.882 629.522 207.79 631.154C201.697 632.786 195.435 629.171 193.803 623.079C192.171 616.987 195.786 610.725 201.878 609.092C207.97 607.46 214.232 611.075 215.865 617.167Z" fill="#15B003"/>
<path d="M282.05 599.433C283.682 605.525 280.067 611.787 273.975 613.42C267.883 615.052 261.621 611.437 259.988 605.345C258.356 599.253 261.971 592.991 268.063 591.358C274.155 589.726 280.417 593.341 282.05 599.433Z" fill="#15B003"/>
<path d="M348.235 581.699C349.867 587.791 346.252 594.053 340.16 595.686C334.068 597.318 327.806 593.703 326.173 587.61C324.541 581.518 328.156 575.256 334.248 573.624C340.341 571.992 346.603 575.607 348.235 581.699Z" fill="#15B003"/>
<path d="M414.42 563.965C416.052 570.057 412.437 576.319 406.345 577.951C400.253 579.584 393.991 575.968 392.358 569.876C390.726 563.784 394.341 557.522 400.433 555.89C406.526 554.257 412.788 557.873 414.42 563.965Z" fill="#15B003"/>
<path d="M480.605 546.231C482.237 552.323 478.622 558.585 472.53 560.217C466.438 561.85 460.176 558.234 458.543 552.142C456.911 546.05 460.526 539.788 466.618 538.155C472.711 536.523 478.973 540.138 480.605 546.231Z" fill="#15B003"/>
<path d="M546.79 528.496C548.422 534.588 544.807 540.85 538.715 542.483C532.623 544.115 526.361 540.5 524.728 534.408C523.096 528.316 526.711 522.054 532.804 520.421C538.896 518.789 545.158 522.404 546.79 528.496Z" fill="#15B003"/>
<path d="M612.975 510.762C614.608 516.854 610.992 523.116 604.9 524.749C598.808 526.381 592.546 522.766 590.913 516.673C589.281 510.581 592.896 504.319 598.989 502.687C605.081 501.055 611.343 504.67 612.975 510.762Z" fill="#15B003"/>
<path d="M679.16 493.028C680.793 499.12 677.177 505.382 671.085 507.014C664.993 508.647 658.731 505.031 657.099 498.939C655.466 492.847 659.081 486.585 665.174 484.953C671.266 483.32 677.528 486.936 679.16 493.028Z" fill="#15B003"/>
<path d="M299.784 665.618C301.416 671.71 297.801 677.972 291.709 679.605C285.617 681.237 279.355 677.622 277.722 671.53C276.09 665.438 279.705 659.176 285.798 657.543C291.89 655.911 298.152 659.526 299.784 665.618Z" fill="#15B003"/>
<path d="M365.969 647.884C367.602 653.976 363.986 660.238 357.894 661.871C351.802 663.503 345.54 659.888 343.907 653.795C342.275 647.703 345.89 641.441 351.983 639.809C358.075 638.177 364.337 641.792 365.969 647.884Z" fill="#15B003"/>
<path d="M432.154 630.15C433.787 636.242 430.171 642.504 424.079 644.136C417.987 645.769 411.725 642.153 410.093 636.061C408.46 629.969 412.076 623.707 418.168 622.075C424.26 620.442 430.522 624.058 432.154 630.15Z" fill="#15B003"/>
<path d="M498.339 612.416C499.972 618.508 496.356 624.77 490.264 626.402C484.172 628.035 477.91 624.419 476.278 618.327C474.645 612.235 478.261 605.973 484.353 604.341C490.445 602.708 496.707 606.323 498.339 612.416Z" fill="#15B003"/>
<path d="M564.524 594.681C566.157 600.774 562.541 607.036 556.449 608.668C550.357 610.3 544.095 606.685 542.463 600.593C540.83 594.501 544.446 588.239 550.538 586.606C556.63 584.974 562.892 588.589 564.524 594.681Z" fill="#15B003"/>
<path d="M630.709 576.947C632.342 583.039 628.726 589.301 622.634 590.934C616.542 592.566 610.28 588.951 608.648 582.859C607.015 576.766 610.631 570.504 616.723 568.872C622.815 567.24 629.077 570.855 630.709 576.947Z" fill="#15B003"/>
<path d="M383.703 714.069C385.336 720.161 381.72 726.423 375.628 728.056C369.536 729.688 363.274 726.073 361.642 719.981C360.009 713.888 363.625 707.626 369.717 705.994C375.809 704.362 382.071 707.977 383.703 714.069Z" fill="#15B003"/>
<path d="M449.888 696.335C451.521 702.427 447.905 708.689 441.813 710.321C435.721 711.954 429.459 708.338 427.827 702.246C426.194 696.154 429.81 689.892 435.902 688.26C441.994 686.627 448.256 690.243 449.888 696.335Z" fill="#15B003"/>
<path d="M516.074 678.601C517.706 684.693 514.091 690.955 507.998 692.587C501.906 694.22 495.644 690.604 494.012 684.512C492.379 678.42 495.995 672.158 502.087 670.526C508.179 668.893 514.441 672.509 516.074 678.601Z" fill="#15B003"/>
<path d="M582.259 660.866C583.891 666.959 580.276 673.221 574.183 674.853C568.091 676.485 561.829 672.87 560.197 666.778C558.564 660.686 562.18 654.424 568.272 652.791C574.364 651.159 580.626 654.774 582.259 660.866Z" fill="#15B003"/>
</g>
</svg>
